<?xml version="1.0" encoding="utf-8"?>
<svg class="b-logo" version="1.1" xmlns="http://www.w3.org/2000/svg" xmlns:xlink="http://www.w3.org/1999/xlink" x="0px" y="0px" viewBox="0 0 200 59.6" xml:space="preserve"><path class="b-logo-path m-copyright" d="M169.1,23.4c0-0.8,0.6-1.5,1.4-1.5c0.8,0,1.5,0.6,1.5,1.5s-0.6,1.5-1.4,1.5C169.7,24.8,169.1,24.2,169.1,23.4z    M170.5,25.1c1,0,1.8-0.8,1.8-1.8s-0.8-1.8-1.8-1.8s-1.8,0.8-1.8,1.8C168.7,24.4,169.6,25.1,170.5,25.1z M170.1,23.5h0.4l0.5,0.9    h0.4l-0.6-0.9c0.3,0,0.5-0.2,0.5-0.6c0-0.4-0.2-0.6-0.7-0.6h-0.8v2.1h0.3L170.1,23.5z M170.1,23.2v-0.6h0.4c0.2,0,0.4,0,0.5,0.3    c0,0.3-0.2,0.3-0.5,0.3H170.1z"></path><path class="b-logo-path m-text" d="M23.3,0.8c2.1-0.1,4.1,1.2,4.2,2.8c0.1,1-0.9,2-2.1,2.4c-0.6,0.2-1.7,0.2-2.5,0.1c-2.6-0.4-4.3-1.8-4.3-1.7    c-0.9,1.3-0.3,2.7-0.2,2.7c0,0,2.8-0.1,2.6,1.3c0,0.1-0.3,0.4-0.8,0.4c-1.4,0-2.1-1.1-2.3-1.1c-4.2,0.7-9.7,5.5-10.4,10.1    c-0.1,0.5-0.1,0.8,0,1.2c0.3,2.5,2.9,3.7,5.3,3.7c2.9,0,9-2,9.7-7.4c0.3-2.1-2-3.6-3.2-3.7c-6-0.7-9,5.8-9.1,5.9    c-0.4,0.1,2.4-5.6,7.6-6.2c0.7-0.1,1.1,0,1.9,0c2.2,0.2,4,2.2,3.9,4.5c-0.2,3.8-4.7,7.2-8.9,7.4c-1.1,0.1-1.8,0-2.9,0    c-3-0.2-6.3-3.1-6.4-6.7C5.3,9.7,15.5,7.2,17.6,7.2c-0.4-1.2-0.4-1.1-0.4-1.9c0-0.5,0.4-1.4,0.4-1.4c-1.7-1-3.6-2-5.7-2.1    c-1.8-0.1-2.9,0.8-3,1.8c-0.1,0.7,0.3,1.7,2.3,1.6c0.4,0,1.4-0.2,1.4-0.1s-1.8,0.3-1.9,0.2c-1.1,0-2-0.7-1.9-1.7    c0.1-1.1,1.1-2.2,3.1-2.1c2.2,0,3.8,0.9,6,2C17.8,3.5,19.4,0.9,23.3,0.8z M18.6,7.6c0.3,0.5,1,0.9,1.4,1c0.2,0.1,0.6,0,0.8-0.1    c0.1-0.1,0-0.5-0.3-0.7C19.6,7.3,18.7,7.7,18.6,7.6z M18.8,4c0,0.1,2,1.3,3.7,1.5c0.6,0,1,0,1.6-0.1c1.4-0.2,2.6-1,2.7-1.8    c0-1.2-1.5-2.4-3.1-2.4C21.4,1.2,19.9,2.3,18.8,4z M23.7,20.8c0,0.2-0.2,2.2,2,2.2s6.3-5.8,6.1-5.9c-0.2-0.1-3.5,4.7-5.4,5.1    c-0.4,0.1-0.9-0.3-0.3-1.3c0-0.1,7-13.8,7-13.8s0.4-0.6,0.2-0.6c-1.7,0.6-2.6-0.1-2.6,0C30.8,6.6,23.5,19.5,23.7,20.8z M50.7,16.8    c1.3,0,2.6,1.2,2.4,1.3C53,18.2,52.3,17,50.5,17c-1.1,0-2.3,0.6-2.9,1.2c0,0,4.1,2.3,4.8,6.8c0.2,1.3,0.2,2.1,0,3.4    c-0.9,4.9-5.1,8-10,8c-1.2,0-2.5-0.6-2.5-0.6c0-0.2,0.3,0.3,2.3,0.4c4.5,0.1,7.6-4.2,8.4-8.9c0.2-1.3,0.3-2.1,0-3.5    c-0.3-1.8-1.9-4-3.5-4.9c-0.1-0.1-2.3,1.8-6.4,11.7c-0.8,1.8-2.7,7.1-4.8,11.9c-4.7,10.7-12.7,14.8-20.6,15.6    c-1.4,0.1-2.2,0.1-3.6,0C4.5,57.5-0.1,51.6,0,45.2c0.1-10.3,9.9-17.7,18-17.7c3.8,0,6.6,2.4,6.6,2.3c1.1-4.1,7.8-12.2,15.3-13    c1.5-0.1,2.3-0.1,3.8,0c1.8,0.2,3.5,1.1,3.5,1.1C48.3,17.3,48.9,16.8,50.7,16.8z M24.9,30.1c-0.1,0.3,2.2,2,2.7,6    c0.2,1.2,0.2,2,0,3.2C25.9,49.7,16.9,53,16.9,53s-1.7,0.7-1.2,0.2c0,0,3.1-0.9,5.7-3.6c2.9-3,4.6-7,5.2-10.4c0.2-1.3,0.1-2,0-3.3    c-0.2-2.4-1.4-4.3-1.4-4.3l-0.4-0.7c-0.1,0.6-0.3,1.6-0.3,2.5c-0.1,1.2,0,1.9,0.3,3.1c0.1,0.5,0.6,1.3,0.4,1.3    c-0.1,0-0.8-0.9-1-3.3c-0.2-1.8,0.3-4.1,0.3-4.1c0-0.2-2.2-2.2-5.6-2.5c-1.7-0.1-5.2,0.3-8.4,2.6c-5,3.4-8.5,11.2-8.7,13.9    c-0.2,2.5-0.2,3.3-0.1,4.1c0.9,5.3,4.4,8.7,11.4,8.9c4.2,0.1,8.4-2.6,10.5-4.8C31,44.9,32.8,36,39,26.6c2.4-3.7,6.5-7.5,7.4-8    c-1-0.6-2.7-0.9-4.3-1C32.8,17.1,25.5,26.9,24.9,30.1z M49.6,50.3c3.7-6.6,9.7-18.6,9.7-18.6s0.8,0.2,1.3,0.2    c0.7,0,1.8-0.3,1.8-0.3S52,51.7,51.8,52.2c-0.3,0.6,0,1.1,0.6,1.3c0.7,0.1,3.8-2.2,4.1-3.7c0.6-3.3,6-9.5,10.7-9.3    c1.5,0,2,0.8,2.4,1.7c0.1-0.1,0.9-1.3,1-1.5c0,0,1.5,0.6,3,0.1c0,0-6.6,11.8-6.6,11.9c-0.1,0.5,0.1,0.8,0.7,0.9    c1.1,0.1,4.2-2.4,4.5-3.8c0.7-3,5.2-9,9.6-9c1.4,0,1.6,0.8,1.6,1.7c0,1.5-1.6,3-2.1,3.2c-0.1,0-0.3,0-0.6-0.2    c-0.2-0.2-0.2-0.5-0.2-0.8c0-1.3,1.5-3.1,2.5-3.1c-0.1-0.3-0.3-0.5-0.9-0.5c-2.4,0-7.6,8-7.5,10.9c0,0.9,0.4,1.9,1.4,1.8    c2.3-0.1,5.2-2.5,5.8-4c0.7-1.6,5-9,5-9.1c0,0,0.4,0.5,2.9,0.1c0,0-6.1,11.7-6.2,11.9c-0.2,0.4-0.1,0.9,0.5,1c1,0.2,4-2.6,4.3-3.9    c0.5-1.9,4.9-9.1,9.4-9.1c0.9,0,1.6,0.3,1.9,1.2c0.2,0.6,0.1,1.4,0,2.2c-0.3,1.5-0.9,2.8-1.8,4.7c0,0,0.4-0.1,0.8-0.2    c1.6-0.4,2.9-1.9,3.1-1.8c0.2,0.2-2.1,2.4-4.3,2.5c0,0-3.4,4.9-6.6,4.9c-1.9,0-2.8-2.1-2.7-3.3c-0.4,0.5-2.7,3.4-4.8,3.2    c-2.3-0.2-2.2-2.2-2.2-2.7c-0.9,0.9-3.3,2.8-5.7,2.7c-1.2-0.1-3.3-0.9-3.3-3.4c-0.7,0.8-3,3.4-5.6,3.3c-1.5-0.1-2.1-1.2-2.3-2.2    c-0.6,0.6-2.6,2.5-5.3,2.3c-2.2-0.1-3-1.8-2.9-2.9c-0.8,0.6-2.5,2.9-4.6,2.7c-1.4-0.1-2.2-1-2.4-2.2c-1.3,1.1-2.5,2.2-4.5,2.2    c-1.5,0-2.4-1.3-2.4-2.4c-1.1,1.1-3,2.5-5.2,2.5c-2.3,0-2.8-1.7-2.9-2.9c-0.1-3.9,5.8-10.9,10.7-10.8c2,0,2.2,0.7,2.7,1.6    c0.3-0.3,1-1.6,1-1.5c0,0,1.5,0.4,3,0.1c0,0-6.6,11.8-6.7,11.8c-0.4,0.8,0.5,1.1,0.6,1.1c1.3,0,2.6-1.2,2.9-1.5    C49.2,51.2,49.6,50.3,49.6,50.3z M90.5,52.7c0,0.4,0.3,1.1,0.9,1.1c2-0.1,5-3.6,5.4-4.3c-0.6-0.4-0.8-0.6-1-1.1    c-0.1-0.3-0.1-1,0-1.5c0.3-1.4,1-2.8,2.4-2.7c0.3,0,0.5,0.1,0.8,0.4c0.2-0.3,0.3-1.1,0.3-1.6c0-0.6-0.2-1.6-1-1.6    C95.2,41.4,90.6,50.5,90.5,52.7z M36.7,52.3c0,0.4,0.2,1.3,1,1.3c3.6,0,8.4-7,9-11c0.2-1.2-0.5-1.7-1.7-1.5    C41.5,41.7,36.5,50.4,36.7,52.3z M58.8,52.5c0,0.6,0.3,1.3,1.1,1.3c4.1-0.1,7.6-6.6,8.9-11.2c0.4-1.2-0.4-1.7-1.6-1.5    C63.8,41.5,58.6,50.6,58.8,52.5z M88,38.7c-0.2,0.9,0.5,1.2,1.1,1.2c0.9,0,1.6-0.6,1.9-1.5c0.1-0.3,0.1-0.5,0-0.7    c-0.2-0.5-1-0.5-1-0.5C89.7,37.1,88.3,37.3,88,38.7z M122.4,31.6c0,0,0.9,0.1,1.5,0.1c0.7,0,1.7-0.2,1.7-0.2s-9.6,18.4-11,21.3    c-0.4,0.8,0,1,0.3,1.1c1.1,0.1,3.5-2,3.5-2.9c0-0.1-0.3-2,1.5-4.6c2.7-3.8,5.7-5.3,7.3-5.6c0.6-0.1,1.1,0,1.6,0    c1.1,0.1,1.7,1.2,1.6,1.9c-0.4,2.4-3.7,5-7.9,4c0,0-1.5,2.3-1.5,4.8c0,1.3,0.5,2.3,1.7,2.3c4.1,0.2,7.3-6,7.5-5.8    c0.2,0.2-3.1,5.7-6.7,6.2c-0.9,0.1-1.5,0.3-2.5,0c-1.3-0.4-2.5-1.6-2.8-2.2c-0.4,0.4-2.2,2.4-3.9,2.4c-1.2,0-2.7-1.1-2.6-2.6    c-0.6,0.6-2.4,2.3-4,2.5c-0.8,0.1-1.3,0.1-2.1,0c-1.3-0.2-2.4-1.2-2.4-3.1c0-3.8,6.3-11.1,11.1-11.1c1.8,0,2.1,1.7,2.1,2.3    L122.4,31.6z M106.3,52.3c0,0.8,0.4,1.5,1.2,1.5c2.7,0.1,6.8-4.6,8.5-10.6c0.4-1.3,0.1-2.4-1.3-2.5    C111.8,40.6,106.3,49.6,106.3,52.3z M123,46c0-0.1,0.1,0.3,1.6,0c2.4-0.3,4.7-2.7,4.8-4.1c0.1-0.8-0.7-1-1-1    C125.3,41.1,123,45.9,123,46z M133.4,26.7c0,0-0.2,0.7-0.2,1.4c0.2,3,3,3.9,5.6,3.9c5.1,0.1,8.3-5.2,7.9-5.1    c-0.3,0.1-2.8,4.4-7.2,4.9c-0.7,0.1-1.4,0-2.1-0.1c-3.8-0.7-4.2-2.9-3.9-4.8l0,0c0-0.1,1.2-4,6.3-4.8c0.8-0.1,1.7-0.2,2.7,0    c2,0.3,3.2,0.9,5.3,1.1c0.9,0.1,1.4,0.1,2.2,0.1s1.2-0.1,1.9-0.2c1.2-0.2,2.3-0.5,3-0.6c-1.7,1.2-5.4,3.9-8.9,8.8    c-4.4,6.1-5.5,8.7-5.7,8.7h-3.9v0.8h3.4c-1.5,2.3-8.3,17.3-16.7,17.4c-3.8,0-5.7-1.5-5.7-1.5c-0.5-0.3-1.1-0.9-1.2-0.7    c0,0.2,2.5,2.6,6.6,2.7c0.9,0,1.4,0.1,2.4,0c5.5-0.4,9.7-3.7,12.6-6.4c4.6-4.2,7.7-11.5,7.7-11.5h3.8c-1.5,2.5-3.8,6.2-4.1,9.4    c-0.1,1-0.1,1.3,0,2.5c0.6,4.4,3.3,5.6,5.3,5.7c2.4,0.1,4.4-2,4.4-2.1c0-0.4-1.4,1.2-3.5,1.5c-0.7,0.1-1.8-0.6-2-1.6    c-0.2-1.2-0.2-1.7,0-2.6c0.9-4.7,5-12.9,4.9-12.9c0,0,1,0,2.1,0v-0.8h-1.7c2-4.9,10.4-17.1,13.9-19.9c0,0-0.6,0.2-0.9,0.3    c-4,1.7-10,9.2-10.2,9.4c-3.3,3.7-7.6,10.3-7.7,10.3h-4c5.4-13.7,13.8-19.9,13.8-19.9c-1.8,1-4.1,1.8-6.9,2.1    c-1.6,0.2-2.6,0.1-4.2,0c-1.9-0.1-3-0.6-4.8-0.8c-1.5-0.2-2.3-0.3-3.8,0C137.1,21.9,134.4,23.8,133.4,26.7L133.4,26.7z M160,38.4    c-0.2,0.9,0.5,1.2,1.1,1.2c0.9,0,1.6-0.6,1.9-1.5c0.1-0.3,0-0.5,0-0.7c-0.2-0.5-1-0.5-1-0.5C161.7,36.8,160.2,37,160,38.4z    M174,38.5c0.3-0.5,1.1-0.7,1.4,0c0.6,1.5-0.4,2-0.4,2.4c0.2,0.7,2.8-1.4,3.9,0.7c0.2,0.3,0.1,1.1,0,1.3c-1.5,3.2-4.4,7.6-4.8,9.3    c-0.3,1.2-0.1,1.4,0.5,1.4c0.7,0.1,2.1-0.9,4.3-4.5c0,0,2.9-4.3,3.6-7.6c-0.2-0.4-0.8-0.9-0.8-1.7s0.6-1.4,0.6-1.4    c0.1-0.2,1.2-1,1.5,0.1c0.4,1.7-0.6,2-0.4,2.4c0.3,0.5,1.5-0.7,3-0.2c0.7,0.2,0.9,1,0.9,1.6c-0.1,2.4-5.3,9-5.4,10.4    c0,0.9,0.5,0.9,0.6,0.9c1.3,0,3.3-2.3,3.3-2.4c0-4.2,5.3-11.5,9.5-11.5c1.3,0,2.1,0.8,2.1,2.4c-0.1,2.2-0.9,4.8-1.6,6.1    c0,0,0.4,0,0.6-0.1c2-0.5,3.4-2.3,3.6-2.1c0.2,0.2-2.4,2.6-4.5,2.8c0,0-3,5.3-6.5,5.4c-1.9,0-2.8-1.9-3-2.4    c-1.2,1.1-2.2,2.3-3.9,2.4c-1.2,0.1-2.1-0.8-2.2-2.5c-0.1-2.8,3-6.6,5.2-9.6c0.2-0.3,0.1-0.9-0.5-0.7c-1,0.3-1.7,0.1-1.7,0.1    c0.1,1.1-5.8,13.7-9.1,12.8c0,0-0.6,0.1-1.4-0.5c-0.6-0.5-0.7-1.8-0.6-2.1c0.1-3.4,3.2-7,5-9.6c0.3-0.4,0-0.9-0.5-0.7    c-1.2,0.4-1.6,0-1.6,0.2c-0.2,1.7-6.2,12.9-10.7,12.7c-1.4-0.1-3.3-1.1-3.8-3.1c-0.5,0.5-2.3,3.1-4.5,3.1c-1.1,0-2.4-0.8-2.4-2.4    c0-1.3,3.5-7.5,3.6-7.7c0.5-1,1.8-3.7,1.9-3.7c1,0.3,1.7,0.4,3,0.1l-6.1,12c-0.5,0.8,0,1,0.4,1.1c1,0.3,3.8-2.4,4-3.4    c0.8-5.1,5.8-9.4,9.4-10.2c0.5-0.1,0.7,0,1.2,0c1,0.1,1.7,1,1.6,1.9c-0.3,4.7-7.2,4.9-7.9,4.4c0,0-1.4,2.1-1.4,4.8    c0,2,0.7,2.4,1.8,2.4c3.2,0.1,8.8-8.8,9.6-12C174.3,41.5,172.8,40.2,174,38.5z M188.5,52.4c0,1.2,0.7,1.3,1.2,1.2    c2.1-0.4,4.4-3.4,5.2-4.7c-0.6-0.3-1.1-0.6-1.3-1.2s-0.1-1.1,0-1.7c0.3-1.4,1.2-2.8,2.4-2.7c0.4,0,0.6,0.3,0.8,0.4    c0.1-0.5,0.2-1.1,0.2-1.6c0-0.7-0.3-1.6-1.3-1.6C192.6,40.4,188.6,49.7,188.5,52.4z M164.5,45.7c0,0,0.2,0.1,1.1,0.1    c2.6,0,5.5-2.8,5.6-4.4c0.1-0.7-0.6-1.2-1.1-1.1C167.4,40.8,165,44.3,164.5,45.7z"></path></svg>